<?xml version="1.0" encoding="utf-8"?>
<!-- Generator: Adobe Illustrator 17.0.0, SVG Export Plug-In . SVG Version: 6.00 Build 0)  -->
<!DOCTYPE svg PUBLIC "-//W3C//DTD SVG 1.1//EN" "http://www.w3.org/Graphics/SVG/1.1/DTD/svg11.dtd">
<svg version="1.1" id="Calque_1" xmlns="http://www.w3.org/2000/svg" xmlns:xlink="http://www.w3.org/1999/xlink" x="0px" y="0px"
	 width="30px" height="30px" viewBox="0 0 30 30" style="enable-background:new 0 0 30 30;" xml:space="preserve">
<style type="text/css">
	.st0{fill:none;stroke:#FFFFFF;stroke-width:3;stroke-miterlimit:10;}
</style>
<symbol  id="Favoris" viewBox="-33.499 -32.318 66.998 64.303">
	<g>
		<path class="st0" d="M14.697,30.485c0.904,0,1.868-0.049,2.898-0.149c6.27-0.612,13.52-6.353,14.404-17.353V9.322
			c-0.822-10.528-8.772-23.515-32-39.808C-23.229-14.192-31.177-1.206-31.999,9.322v3.661c0.883,11,8.133,16.74,14.402,17.353
			c1.03,0.101,1.994,0.149,2.898,0.149c7.244,0,10.72-3.131,14.698-7.872C3.979,27.354,7.452,30.485,14.697,30.485"/>
	</g>
</symbol>
<use xlink:href="#Favoris"  width="66.998" height="64.303" id="XMLID_1_" x="-33.499" y="-32.318" transform="matrix(0.4454 0 0 -0.4454 15 14.9996)" style="overflow:visible;"/>
</svg>
