<?xml version="1.0" encoding="utf-8"?>
<!-- Generator: Adobe Illustrator 17.0.0, SVG Export Plug-In . SVG Version: 6.00 Build 0)  -->
<!DOCTYPE svg PUBLIC "-//W3C//DTD SVG 1.1//EN" "http://www.w3.org/Graphics/SVG/1.1/DTD/svg11.dtd">
<svg version="1.1" id="Calque_1" xmlns="http://www.w3.org/2000/svg" xmlns:xlink="http://www.w3.org/1999/xlink" x="0px" y="0px"
	 width="21px" height="21px" viewBox="0 0 21 21" style="enable-background:new 0 0 21 21;" xml:space="preserve">
<style type="text/css">
	.st0{fill:none;stroke:#FFFFFF;stroke-miterlimit:10;}
	.st1{fill-rule:evenodd;clip-rule:evenodd;fill:#FFFFFF;}
</style>
<g>
	<g>
		<circle class="st0" cx="10.5" cy="10.5" r="10.026"/>
	</g>
</g>
<g>
	<g>
		<path class="st1" d="M6.28,9.445c-0.583,0-1.055,0.472-1.055,1.055c0,0.583,0.472,1.055,1.055,1.055
			c0.583,0,1.055-0.472,1.055-1.055C7.335,9.917,6.863,9.445,6.28,9.445z M10.5,9.445c-0.583,0-1.055,0.472-1.055,1.055
			c0,0.583,0.472,1.055,1.055,1.055c0.583,0,1.055-0.472,1.055-1.055C11.555,9.917,11.083,9.445,10.5,9.445z M14.72,9.445
			c-0.583,0-1.055,0.472-1.055,1.055c0,0.583,0.472,1.055,1.055,1.055c0.583,0,1.055-0.472,1.055-1.055
			C15.775,9.917,15.303,9.445,14.72,9.445z"/>
	</g>
</g>
</svg>
