<?xml version="1.0" encoding="utf-8"?>
<!-- Generator: Adobe Illustrator 17.0.0, SVG Export Plug-In . SVG Version: 6.00 Build 0)  -->
<!DOCTYPE svg PUBLIC "-//W3C//DTD SVG 1.1//EN" "http://www.w3.org/Graphics/SVG/1.1/DTD/svg11.dtd">
<svg version="1.1" id="Calque_1" xmlns="http://www.w3.org/2000/svg" xmlns:xlink="http://www.w3.org/1999/xlink" x="0px" y="0px"
	 width="30px" height="30px" viewBox="0 0 30 30" style="enable-background:new 0 0 30 30;" xml:space="preserve">
<style type="text/css">
	.st0{fill:none;stroke:#FFFFFF;stroke-miterlimit:10;}
	.st1{fill-rule:evenodd;clip-rule:evenodd;fill:none;stroke:#FFFFFF;stroke-miterlimit:10;}
</style>
<g>
	<path class="st0" d="M20.821,12.634c0,2.899-2.349,5.248-5.247,5.248c-2.898,0-5.247-2.35-5.247-5.248s2.349-5.248,5.247-5.248
		C18.472,7.385,20.821,9.735,20.821,12.634z"/>
	<path class="st0" d="M15.574,19.826c-4.218,0-7.96,1.509-10.3,3.839c2.497,2.885,6.183,4.714,10.3,4.714
		c4.116,0,7.803-1.828,10.3-4.714C23.534,21.335,19.792,19.826,15.574,19.826z"/>
	<path class="st1" d="M15.574,1.165c7.513,0,13.604,6.092,13.604,13.607c0,7.515-6.091,13.607-13.604,13.607
		S1.97,22.287,1.97,14.772C1.97,7.257,8.061,1.165,15.574,1.165z"/>
</g>
</svg>
