<?xml version="1.0" encoding="utf-8"?>
<!-- Generator: Adobe Illustrator 17.0.0, SVG Export Plug-In . SVG Version: 6.00 Build 0)  -->
<!DOCTYPE svg PUBLIC "-//W3C//DTD SVG 1.1//EN" "http://www.w3.org/Graphics/SVG/1.1/DTD/svg11.dtd">
<svg version="1.1" id="Calque_1" xmlns="http://www.w3.org/2000/svg" xmlns:xlink="http://www.w3.org/1999/xlink" x="0px" y="0px"
	 width="37px" height="37px" viewBox="0 0 37 37" style="enable-background:new 0 0 37 37;" xml:space="preserve">
<style type="text/css">
	.st0{fill:none;stroke:#FFFFFF;stroke-width:0.9843;stroke-miterlimit:10;}
	.st1{fill-rule:evenodd;clip-rule:evenodd;fill:none;stroke:#FFFFFF;stroke-width:0.9843;stroke-miterlimit:10;}
</style>
<g>
	<path class="st0" d="M25.386,15.694c0,3.804-3.083,6.888-6.886,6.888c-3.803,0-6.886-3.084-6.886-6.888
		c0-3.804,3.083-6.888,6.886-6.888C22.303,8.806,25.386,11.89,25.386,15.694z"/>
	<path class="st0" d="M18.5,25.133c-5.535,0-10.446,1.981-13.518,5.039c3.277,3.787,8.115,6.186,13.518,6.186
		c5.403,0,10.241-2.399,13.518-6.186C28.946,27.114,24.035,25.133,18.5,25.133z"/>
	<path class="st1" d="M18.5,0.642c9.86,0,17.854,7.995,17.854,17.858S28.36,36.358,18.5,36.358S0.646,28.363,0.646,18.5
		C0.646,8.638,8.64,0.642,18.5,0.642z"/>
</g>
</svg>
