<?xml version="1.0" encoding="utf-8"?>
<!-- Generator: Adobe Illustrator 17.0.0, SVG Export Plug-In . SVG Version: 6.00 Build 0)  -->
<!DOCTYPE svg PUBLIC "-//W3C//DTD SVG 1.1//EN" "http://www.w3.org/Graphics/SVG/1.1/DTD/svg11.dtd">
<svg version="1.1" id="Calque_1" xmlns="http://www.w3.org/2000/svg" xmlns:xlink="http://www.w3.org/1999/xlink" x="0px" y="0px"
	 width="25px" height="25px" viewBox="0 0 25 25" style="enable-background:new 0 0 25 25;" xml:space="preserve">
<style type="text/css">
	.st0{fill:#00ACED;}
</style>
<g>
	<g>
		<path class="st0" d="M10.441,11.842c0,0,2.214-0.165,2.214-2.76c0-2.596-1.811-3.863-4.105-3.863H1v14.507h7.55
			c0,0,4.609,0.146,4.609-4.282C13.158,15.443,13.359,11.842,10.441,11.842z M4.327,7.796H8.55c0,0,1.027,0,1.027,1.51
			c0,1.509-0.605,1.728-1.288,1.728H4.327V7.796z M8.337,17.147h-4.01V13.27H8.55c0,0,1.53-0.02,1.53,1.993
			C10.08,16.959,8.937,17.134,8.337,17.147z M19.304,8.909c-5.579,0-5.573,5.574-5.573,5.574s-0.383,5.546,5.573,5.546
			c0,0,4.965,0.284,4.965-3.858h-2.553c0,0,0.085,1.561-2.327,1.561c0,0-2.553,0.17-2.553-2.525h7.517
			C24.354,15.207,25.176,8.909,19.304,8.909z M16.808,13.27c0,0,0.312-2.236,2.554-2.236c2.24,0,2.211,2.236,2.211,2.236H16.808z
			 M22.169,6.073h-5.985v1.786h5.985V6.073z"/>
	</g>
</g>
</svg>
