<?xml version="1.0" encoding="utf-8"?>
<!-- Generator: Adobe Illustrator 17.0.0, SVG Export Plug-In . SVG Version: 6.00 Build 0)  -->
<!DOCTYPE svg PUBLIC "-//W3C//DTD SVG 1.1//EN" "http://www.w3.org/Graphics/SVG/1.1/DTD/svg11.dtd">
<svg version="1.1" id="Calque_1" xmlns="http://www.w3.org/2000/svg" xmlns:xlink="http://www.w3.org/1999/xlink" x="0px" y="0px"
	 width="15px" height="15px" viewBox="0 0 15 15" style="enable-background:new 0 0 15 15;" xml:space="preserve">
<style type="text/css">
	.st0{fill:#FFFFFF;}
</style>
<g>
	<path class="st0" d="M7.51,0.078c1.384,0,2.5,0.315,3.347,0.944c0.847,0.63,1.271,1.478,1.271,2.546
		c0,0.739-0.205,1.396-0.613,1.973c-0.409,0.577-1.068,1.093-1.978,1.548c1.081,0.58,1.857,1.185,2.329,1.815
		c0.471,0.63,0.707,1.32,0.707,2.072c0,1.187-0.465,2.141-1.394,2.863s-2.153,1.083-3.669,1.083c-1.582,0-2.825-0.336-3.728-1.009
		c-0.903-0.672-1.355-1.625-1.355-2.858c0-0.824,0.219-1.556,0.658-2.195C3.523,8.22,4.227,7.657,5.196,7.169
		c-0.824-0.521-1.418-1.078-1.78-1.671C3.053,4.904,2.872,4.255,2.872,3.549c0-1.035,0.428-1.872,1.286-2.512
		C5.014,0.398,6.132,0.078,7.51,0.078z M5.255,10.877c0,0.567,0.198,1.009,0.593,1.325c0.396,0.316,0.936,0.475,1.622,0.475
		c0.758,0,1.325-0.163,1.701-0.489c0.376-0.326,0.564-0.756,0.564-1.29c0-0.441-0.187-0.855-0.559-1.241
		C8.804,9.27,8.199,8.86,7.362,8.425C5.957,9.071,5.255,9.888,5.255,10.877z M7.49,2.313c-0.521,0-0.941,0.133-1.261,0.4
		c-0.32,0.267-0.48,0.625-0.48,1.073c0,0.396,0.127,0.75,0.381,1.063C6.384,5.163,6.844,5.484,7.51,5.814
		c0.646-0.303,1.098-0.613,1.355-0.93C9.122,4.568,9.25,4.202,9.25,3.787c0-0.455-0.165-0.814-0.494-1.078
		C8.426,2.445,8.004,2.313,7.49,2.313z"/>
</g>
</svg>
