<?xml version="1.0" encoding="utf-8"?>
<!-- Generator: Adobe Illustrator 17.0.0, SVG Export Plug-In . SVG Version: 6.00 Build 0)  -->
<!DOCTYPE svg PUBLIC "-//W3C//DTD SVG 1.1//EN" "http://www.w3.org/Graphics/SVG/1.1/DTD/svg11.dtd">
<svg version="1.1" id="Calque_1" xmlns="http://www.w3.org/2000/svg" xmlns:xlink="http://www.w3.org/1999/xlink" x="0px" y="0px"
	 width="25px" height="25px" viewBox="0 0 25 25" style="enable-background:new 0 0 25 25;" xml:space="preserve">
<style type="text/css">
	.st0{fill:#00ACED;}
</style>
<path class="st0" d="M21.568,10.874l2.79-2.093H21.12c-0.547-1.679-1.695-2.998-3.214-3.402c-4.476-1.193-6.22,3.983-6.22,3.983
	C11.047,8.548,4.42,4.421,4.071,5.584C3.722,6.747,5.99,8.316,5.99,8.316c-3.081,0.349,0.872,2.5,0.872,2.5
	c-2.906,0.931,1.395,2.5,1.395,2.5c-0.755,1.57,0.756,1.744,0.756,1.744c-3.488,3.488-8.371,0.698-8.371,0.698
	c2.499,2.79,7.092,5.755,15.056,2.848c3.219-1.175,4.927-3.366,5.525-5.638h3.137L21.568,10.874z"/>
</svg>
