<?xml version="1.0" encoding="utf-8"?>
<!-- Generator: Adobe Illustrator 17.0.0, SVG Export Plug-In . SVG Version: 6.00 Build 0)  -->
<!DOCTYPE svg PUBLIC "-//W3C//DTD SVG 1.1//EN" "http://www.w3.org/Graphics/SVG/1.1/DTD/svg11.dtd">
<svg version="1.1" id="Calque_1" xmlns="http://www.w3.org/2000/svg" xmlns:xlink="http://www.w3.org/1999/xlink" x="0px" y="0px"
	 width="13px" height="13px" viewBox="0 0 13 13" style="enable-background:new 0 0 13 13;" xml:space="preserve">
<style type="text/css">
	.st0{fill:#FFFFFF;}
</style>
<g>
	<g>
		<path class="st0" d="M12.833,3.328l-0.007,0c-0.288-1.562-1.672-2.749-3.343-2.749c-1.292,0-2.402,0.716-2.979,1.759
			C5.927,1.295,4.816,0.579,3.524,0.579c-1.729,0-3.143,1.273-3.36,2.916l-0.016,0C0.091,3.811,0.087,4.299,0.087,4.299
			c-0.028,1.113,0.39,4.556,5.991,8c0,0,0.416,0.275,0.851,0c5.297-3.338,5.951-6.584,5.986-7.833
			C12.914,4.466,12.924,3.701,12.833,3.328z"/>
	</g>
</g>
</svg>
