<?xml version="1.0" encoding="utf-8"?>
<!-- Generator: Adobe Illustrator 17.0.0, SVG Export Plug-In . SVG Version: 6.00 Build 0)  -->
<!DOCTYPE svg PUBLIC "-//W3C//DTD SVG 1.1//EN" "http://www.w3.org/Graphics/SVG/1.1/DTD/svg11.dtd">
<svg version="1.1" id="Calque_1" xmlns="http://www.w3.org/2000/svg" xmlns:xlink="http://www.w3.org/1999/xlink" x="0px" y="0px"
	 width="74px" height="74px" viewBox="0 0 74 74" style="enable-background:new 0 0 74 74;" xml:space="preserve">
<style type="text/css">
	.st0{fill:none;stroke:#FFFFFF;stroke-miterlimit:10;}
	.st1{fill-rule:evenodd;clip-rule:evenodd;fill:none;stroke:#FFFFFF;stroke-miterlimit:10;}
</style>
<g>
	<path class="st0" d="M51.076,31.265c0,7.774-6.302,14.076-14.076,14.076c-7.774,0-14.076-6.302-14.076-14.076
		c0-7.774,6.302-14.075,14.076-14.075C44.774,17.19,51.076,23.492,51.076,31.265z"/>
	<path class="st0" d="M37,50.554c-11.314,0-21.352,4.048-27.629,10.297C16.068,68.589,25.958,73.492,37,73.492
		c11.042,0,20.932-4.903,27.629-12.641C58.352,54.602,48.313,50.554,37,50.554z"/>
	<path class="st1" d="M37,0.508c20.154,0,36.492,16.338,36.492,36.492c0,20.154-16.338,36.492-36.492,36.492
		C16.846,73.492,0.508,57.154,0.508,37C0.508,16.846,16.846,0.508,37,0.508z"/>
</g>
</svg>
