<?xml version="1.0" encoding="utf-8"?>
<!-- Generator: Adobe Illustrator 17.0.0, SVG Export Plug-In . SVG Version: 6.00 Build 0)  -->
<!DOCTYPE svg PUBLIC "-//W3C//DTD SVG 1.1//EN" "http://www.w3.org/Graphics/SVG/1.1/DTD/svg11.dtd">
<svg version="1.1" id="Calque_1" xmlns="http://www.w3.org/2000/svg" xmlns:xlink="http://www.w3.org/1999/xlink" x="0px" y="0px"
	 width="56px" height="56px" viewBox="0 0 56 56" style="enable-background:new 0 0 56 56;" xml:space="preserve">
<style type="text/css">
	.st0{fill:none;stroke:#FFFFFF;stroke-miterlimit:10;}
	.st1{fill-rule:evenodd;clip-rule:evenodd;fill:none;stroke:#FFFFFF;stroke-miterlimit:10;}
</style>
<g>
	<path class="st0" d="M38.535,23.888c0,5.797-4.698,10.497-10.494,10.497s-10.494-4.699-10.494-10.497
		c0-5.797,4.698-10.497,10.494-10.497S38.535,18.091,38.535,23.888z"/>
	<path class="st0" d="M28.041,38.273c-8.435,0-15.919,3.019-20.6,7.679c4.993,5.771,12.367,9.427,20.6,9.427
		c8.233,0,15.606-3.656,20.6-9.427C43.96,41.291,36.476,38.273,28.041,38.273z"/>
	<path class="st1" d="M28.041,0.951c15.026,0,27.208,12.184,27.208,27.214S43.067,55.379,28.041,55.379S0.833,43.195,0.833,28.165
		S13.015,0.951,28.041,0.951z"/>
</g>
</svg>
