<?xml version="1.0" encoding="utf-8"?>
<!-- Generator: Adobe Illustrator 17.0.0, SVG Export Plug-In . SVG Version: 6.00 Build 0)  -->
<!DOCTYPE svg PUBLIC "-//W3C//DTD SVG 1.1//EN" "http://www.w3.org/Graphics/SVG/1.1/DTD/svg11.dtd">
<svg version="1.1" id="Calque_1" xmlns="http://www.w3.org/2000/svg" xmlns:xlink="http://www.w3.org/1999/xlink" x="0px" y="0px"
	 width="30px" height="30px" viewBox="0 0 30 30" style="enable-background:new 0 0 30 30;" xml:space="preserve">
<style type="text/css">
	.st0{fill:#FFFFFF;}
</style>
<g>
	<path class="st0" d="M24.235,17.724c0.012-0.108,0.034-0.213,0.034-0.325c0-1.683-1.381-3.046-3.083-3.046
		c-0.769,0-1.464,0.289-2.006,0.75c-0.138-2.75-2.433-4.938-5.252-4.938c-1.933,0-3.617,1.032-4.533,2.565
		c-0.313-0.058-0.634-0.091-0.965-0.091c-2.891,0-5.235,2.315-5.235,5.17c0,0.326,0.034,0.643,0.09,0.951
		c-1.744,0.467-3.037,2.029-3.037,3.903c0,2.243,1.841,4.062,4.11,4.062H21.83c0.165,0,0.323-0.029,0.485-0.048
		c0.208,0.028,0.419,0.048,0.637,0.048c2.573,0,4.657-2.06,4.657-4.601C27.608,20.027,26.179,18.276,24.235,17.724z"/>
	<path class="st0" d="M20.194,13.058c0.325-0.074,0.657-0.112,0.992-0.112c2.266,0,4.147,1.661,4.461,3.816
		c0.697,0.342,1.305,0.817,1.814,1.376c1.422-1.578,2.292-3.651,2.292-5.93c0-4.934-4.049-8.934-9.042-8.934
		c-3.835,0-7.107,2.364-8.422,5.694c0.532-0.134,1.081-0.211,1.64-0.211C16.791,8.758,19.246,10.535,20.194,13.058z"/>
</g>
</svg>
