<?xml version="1.0" encoding="utf-8"?>
<!-- Generator: Adobe Illustrator 17.0.0, SVG Export Plug-In . SVG Version: 6.00 Build 0)  -->
<!DOCTYPE svg PUBLIC "-//W3C//DTD SVG 1.1//EN" "http://www.w3.org/Graphics/SVG/1.1/DTD/svg11.dtd">
<svg version="1.1" id="Calque_1" xmlns="http://www.w3.org/2000/svg" xmlns:xlink="http://www.w3.org/1999/xlink" x="0px" y="0px"
	 width="30px" height="30px" viewBox="0 0 30 30" style="enable-background:new 0 0 30 30;" xml:space="preserve">
<style type="text/css">
	.st0{fill:#FFFFFF;}
</style>
<g>
	<path class="st0" d="M25.612,8.436c0.012-0.115,0.035-0.225,0.035-0.342c0-1.767-1.422-3.198-3.174-3.198
		c-0.793,0-1.508,0.302-2.063,0.787C20.263,2.794,17.902,0.496,15,0.496c-1.991,0-3.725,1.084-4.667,2.694
		C10.01,3.13,9.68,3.095,9.339,3.095c-2.976,0-5.389,2.432-5.389,5.432c0,0.341,0.035,0.674,0.093,0.997
		c-1.798,0.492-3.127,2.132-3.127,4.101c0,2.355,1.894,4.265,4.232,4.265h17.985c0.17,0,0.333-0.031,0.499-0.051
		c0.216,0.029,0.434,0.051,0.657,0.051c2.649,0,4.794-2.163,4.794-4.832C29.084,10.855,27.612,9.016,25.612,8.436z"/>
	<path class="st0" d="M19.876,19.484H12.2l-2.202,4.82h2.266l-1.857,5.2l9.595-6.722l-3.197-0.063L19.876,19.484z"/>
</g>
</svg>
