<?xml version="1.0" encoding="utf-8"?>
<!-- Generator: Adobe Illustrator 17.0.0, SVG Export Plug-In . SVG Version: 6.00 Build 0)  -->
<!DOCTYPE svg PUBLIC "-//W3C//DTD SVG 1.1//EN" "http://www.w3.org/Graphics/SVG/1.1/DTD/svg11.dtd">
<svg version="1.1" id="Calque_1" xmlns="http://www.w3.org/2000/svg" xmlns:xlink="http://www.w3.org/1999/xlink" x="0px" y="0px"
	 width="22px" height="22px" viewBox="0 0 22 22" style="enable-background:new 0 0 22 22;" xml:space="preserve">
<style type="text/css">
	.st0{fill-rule:evenodd;clip-rule:evenodd;fill:none;stroke:#FFFFFF;stroke-miterlimit:10;}
	.st1{fill-rule:evenodd;clip-rule:evenodd;fill:#FFFFFF;}
</style>
<path class="st0" d="M11,2.084c4.924,0,8.916,3.992,8.916,8.916c0,4.924-3.992,8.916-8.916,8.916c-4.924,0-8.916-3.992-8.916-8.916
	C2.084,6.076,6.076,2.084,11,2.084z"/>
<g>
	<path class="st1" d="M9.379,9.176h0.811v0.811H9.379V9.176z"/>
	<g>
		<path class="st1" d="M10.189,9.176h1.621v6.485h-1.621V9.176z"/>
		<path class="st1" d="M9.379,15.661h3.242v0.811H9.379V15.661z"/>
		<path class="st1" d="M11,5.529c0.671,0,1.216,0.544,1.216,1.216S11.671,7.96,11,7.96S9.784,7.416,9.784,6.744
			S10.328,5.529,11,5.529z"/>
	</g>
</g>
</svg>
